<svg xmlns="http://www.w3.org/2000/svg" viewBox="0 0 128 128" role="img" aria-label="看守老哥生气">
  <defs>
    <linearGradient id="body" x1="26" y1="22" x2="101" y2="110" gradientUnits="userSpaceOnUse">
      <stop offset="0" stop-color="#e0ffe7"/><stop offset=".45" stop-color="#76e0a3"/><stop offset="1" stop-color="#24885c"/>
    </linearGradient>
    <linearGradient id="accent" x1="22" y1="20" x2="104" y2="107" gradientUnits="userSpaceOnUse">
      <stop offset="0" stop-color="#ffffff"/><stop offset="1" stop-color="#76e0a3"/>
    </linearGradient>
    <filter id="ds" x="-20%" y="-20%" width="140%" height="150%">
      <feDropShadow dx="0" dy="5" stdDeviation="3" flood-color="#05020a" flood-opacity=".5"/>
    </filter>
  </defs>
  <ellipse cx="64" cy="108" rx="38" ry="10" fill="#000" opacity=".26"/><g filter="url(#ds)"><path d="M35 107c5-25 53-25 58 0Z" fill="url(#body)" stroke="#1b1126" stroke-width="5"/><circle cx="64" cy="58" r="34" fill="#d88a55" stroke="#1b1126" stroke-width="5"/><path d="M35 53c5-26 49-35 64-10-11-1-20 4-30-3-13 9-24 9-34 13Z" fill="#4a2a20" stroke="#1b1126" stroke-width="4" stroke-linejoin="round"/><circle cx="53" cy="62" r="4" fill="#220b12"/><circle cx="75" cy="62" r="4" fill="#220b12"/><path d="M45 51l15 5M83 51l-15 5" stroke="#220b12" stroke-width="5" stroke-linecap="round"/><path d="M50 74c10-7 20-7 30 0" fill="none" stroke="#220b12" stroke-width="5" stroke-linecap="round"/></g>
</svg>
